<?xml version="1.0" encoding="UTF-8"?>
<svg id="Binero_group_lockup_linear" xmlns="http://www.w3.org/2000/svg" version="1.1" viewBox="0 0 967.18 108.48">
  <defs>
    <style>
      .cls-1 {
        fill: #fff;
        stroke-width: 0px;
      }
    </style>
  </defs>
  <g>
    <path class="cls-1" d="M70.1,3.23C31.86,3.23.77,33.84,0,71.9c-.02.79.62,1.44,1.42,1.44h14.7c.77,0,1.39-.62,1.41-1.39.73-28.4,23.99-51.2,52.57-51.2s51.84,22.8,52.57,51.2c.02.77.64,1.39,1.41,1.39h14.7c.79,0,1.43-.65,1.42-1.44-.77-38.06-31.86-68.68-70.1-68.68Z"/>
    <path class="cls-1" d="M103.72,73.34h-14.72c-.75,0-1.36.58-1.41,1.33-.68,9.06-8.24,16.2-17.48,16.2s-16.8-7.14-17.48-16.2c-.06-.75-.67-1.33-1.41-1.33h-14.72c-.81,0-1.45.67-1.42,1.48.77,18.68,16.16,33.58,35.03,33.58s34.26-14.91,35.03-33.58c.03-.8-.61-1.48-1.42-1.48Z"/>
  </g>
  <g>
    <rect class="cls-1" x="261.61" y="30.25" width="17.22" height="76.68"/>
    <path class="cls-1" d="M270.3,0c-2.8,0-5.19.93-7.19,2.8-2,1.86-3,4.11-3,6.74s1,4.88,3,6.76c2,1.88,4.39,2.82,7.19,2.82s5.18-.94,7.16-2.82c1.98-1.88,2.97-4.14,2.97-6.76s-.99-4.88-2.97-6.74c-1.98-1.86-4.37-2.8-7.16-2.8Z"/>
    <path class="cls-1" d="M346.9,32.62c-3.93-2.25-8.52-3.37-13.78-3.37-5.76,0-10.56,1.26-14.4,3.77-3.84,2.51-6.65,5.88-8.41,10.11h-.9v-12.88h-16.47v76.68h17.22v-45.08c0-3.79.71-7.03,2.12-9.71,1.41-2.68,3.38-4.73,5.89-6.14,2.51-1.41,5.4-2.12,8.66-2.12,4.76,0,8.5,1.48,11.23,4.44,2.73,2.96,4.08,7.07,4.04,12.33v46.28h17.22v-48.78c0-6.19-1.09-11.43-3.27-15.73-2.18-4.29-5.23-7.56-9.16-9.81Z"/>
    <path class="cls-1" d="M429.67,38.44c-3.23-3.13-6.93-5.44-11.11-6.94-4.18-1.5-8.56-2.25-13.15-2.25-7.29,0-13.63,1.67-19.02,5.02-5.39,3.35-9.59,8.01-12.58,14-3,5.99-4.49,12.91-4.49,20.77s1.5,14.94,4.49,20.84c3,5.91,7.26,10.48,12.78,13.73,5.52,3.25,12.13,4.87,19.82,4.87,5.82,0,11.02-.9,15.58-2.7,4.56-1.8,8.32-4.33,11.28-7.59,2.96-3.26,4.99-7.07,6.09-11.43l-16.13-2.1c-.83,2.23-2.05,4.1-3.64,5.62-1.6,1.51-3.49,2.65-5.69,3.42-2.2.77-4.63,1.15-7.29,1.15-4.06,0-7.61-.87-10.63-2.62-3.03-1.75-5.38-4.27-7.06-7.56-1.6-3.14-2.43-6.89-2.51-11.23h53.7v-5.49c0-6.79-.93-12.62-2.8-17.5-1.86-4.88-4.41-8.88-7.64-12.01ZM386.43,61.5c.18-3.1.98-5.98,2.38-8.64,1.58-3,3.81-5.41,6.69-7.24,2.88-1.83,6.25-2.75,10.11-2.75,3.56,0,6.69.81,9.39,2.42,2.7,1.61,4.79,3.82,6.29,6.61,1.5,2.8,2.25,5.99,2.25,9.59h-37.1Z"/>
    <path class="cls-1" d="M487.5,29.1c-4.43,0-8.36,1.21-11.81,3.62-3.44,2.41-5.87,5.8-7.26,10.16h-.8v-12.63h-16.67v76.68h17.22s0-45.58,0-45.58c0-3.26.76-6.16,2.27-8.69,1.51-2.53,3.59-4.51,6.24-5.94,2.65-1.43,5.67-2.15,9.06-2.15,1.5,0,3.05.11,4.67.32,1.61.22,2.79.44,3.52.67v-15.98c-.8-.17-1.83-.29-3.09-.37-1.27-.08-2.38-.12-3.34-.12Z"/>
    <path class="cls-1" d="M552.73,34.2c-5.46-3.29-11.88-4.94-19.27-4.94s-13.85,1.65-19.3,4.94c-5.44,3.3-9.67,7.92-12.68,13.88-3.01,5.96-4.52,12.91-4.52,20.87s1.51,14.79,4.52,20.72c3.01,5.93,7.24,10.54,12.68,13.85,5.44,3.31,11.87,4.97,19.3,4.97s13.81-1.65,19.27-4.97c5.46-3.31,9.69-7.93,12.68-13.85,3-5.92,4.49-12.83,4.49-20.72s-1.5-14.91-4.49-20.87c-3-5.96-7.22-10.58-12.68-13.88ZM550.41,81.8c-1.38,3.88-3.48,6.96-6.29,9.26-2.81,2.3-6.35,3.44-10.61,3.44s-7.86-1.15-10.68-3.44c-2.83-2.3-4.94-5.38-6.34-9.26-1.4-3.88-2.1-8.2-2.1-12.96s.7-9.04,2.1-12.93c1.4-3.89,3.51-7.01,6.34-9.34,2.83-2.33,6.39-3.49,10.68-3.49s7.8,1.17,10.61,3.49c2.81,2.33,4.91,5.44,6.29,9.34,1.38,3.89,2.07,8.2,2.07,12.93s-.69,9.08-2.07,12.96Z"/>
    <path class="cls-1" d="M240.05,57.33c-3.34-2.01-6.83-3.12-10.45-3.32v-1c3.33-.8,6.34-2.11,9.03-3.94,2.7-1.83,4.84-4.22,6.44-7.16s2.4-6.49,2.4-10.65c0-5.06-1.22-9.58-3.67-13.57-2.44-3.99-6.12-7.14-11.03-9.46-4.91-2.31-11.05-3.47-18.44-3.47h-39.12v102.18h41.36c7.82,0,14.3-1.21,19.46-3.64,5.16-2.43,9.01-5.75,11.58-9.95,2.56-4.21,3.84-8.96,3.84-14.24s-1.07-9.61-3.19-13.27c-2.13-3.66-4.86-6.49-8.21-8.51ZM193.73,20.04h18.71c5.46,0,9.57,1.28,12.35,3.84,2.78,2.56,4.17,5.82,4.17,9.78,0,2.99-.74,5.58-2.22,7.76-1.48,2.18-3.5,3.86-6.06,5.04-2.56,1.18-5.44,1.77-8.63,1.77h-18.31v-28.19ZM228.18,87.62c-2.98,2.58-7.83,3.87-14.54,3.87h-19.91v-29.94h20.41c3.82,0,7.12.71,9.88,2.12,2.76,1.41,4.89,3.34,6.39,5.79,1.5,2.44,2.25,5.18,2.25,8.21,0,4.06-1.49,7.38-4.47,9.95Z"/>
  </g>
  <g>
    <path class="cls-1" d="M637.33,24.17c4.28-2.77,9.18-4.15,14.72-4.15,3.11,0,6.02.42,8.72,1.27,2.7.84,5.11,2.1,7.23,3.75,2.12,1.66,3.89,3.67,5.32,6.04,1.42,2.37,2.4,5.08,2.93,8.13h18.59c-.76-5.67-2.38-10.71-4.85-15.14-2.47-4.42-5.61-8.17-9.42-11.24-3.81-3.07-8.15-5.39-13.03-6.99s-10.14-2.39-15.81-2.39c-8.88,0-16.84,2.07-23.86,6.21-7.03,4.14-12.58,10.12-16.66,17.92-4.08,7.81-6.12,17.19-6.12,28.16s2.02,20.32,6.07,28.14c4.04,7.82,9.58,13.8,16.61,17.95,7.03,4.14,15.01,6.21,23.96,6.21,6.07,0,11.58-.9,16.56-2.71s9.31-4.32,13.03-7.56c3.71-3.23,6.72-6.97,9.02-11.21,2.3-4.24,3.8-8.78,4.5-13.62l-18.59-.1c-.56,2.98-1.58,5.64-3.06,7.95-1.47,2.32-3.28,4.28-5.42,5.87s-4.54,2.79-7.21,3.6c-2.67.81-5.53,1.22-8.58,1.22-5.5,0-10.38-1.35-14.64-4.05-4.26-2.7-7.61-6.71-10.04-12.03-2.44-5.32-3.65-11.87-3.65-19.66s1.21-14.14,3.63-19.46c2.42-5.32,5.77-9.36,10.04-12.13Z"/>
    <rect class="cls-1" x="706.1" y="4.85" width="18" height="101.82"/>
    <path class="cls-1" d="M790.39,34.23c-5.47-3.28-11.93-4.92-19.39-4.92s-13.92,1.64-19.39,4.92-9.7,7.89-12.7,13.82c-3,5.93-4.5,12.84-4.5,20.73s1.5,14.78,4.5,20.68c3,5.9,7.23,10.49,12.7,13.77s11.93,4.92,19.39,4.92,13.92-1.64,19.39-4.92,9.7-7.87,12.7-13.77c3-5.9,4.5-12.79,4.5-20.68s-1.5-14.8-4.5-20.73c-3-5.93-7.23-10.54-12.7-13.82ZM787.34,81.36c-1.34,3.78-3.37,6.79-6.09,9.02-2.72,2.24-6.1,3.36-10.14,3.36s-7.58-1.12-10.32-3.36c-2.73-2.24-4.77-5.24-6.11-9.02-1.34-3.78-2.01-7.99-2.01-12.63s.67-8.91,2.01-12.7c1.34-3.79,3.38-6.82,6.11-9.07,2.73-2.25,6.17-3.38,10.32-3.38s7.42,1.13,10.14,3.38c2.72,2.25,4.75,5.28,6.09,9.07,1.34,3.8,2.01,8.03,2.01,12.7s-.67,8.85-2.01,12.63Z"/>
    <path class="cls-1" d="M866.58,74.55c0,3.88-.8,7.1-2.41,9.67-1.61,2.57-3.65,4.5-6.14,5.79-2.49,1.29-5.05,1.94-7.71,1.94-4.31,0-7.79-1.42-10.44-4.28-2.65-2.85-3.98-6.69-3.98-11.53V30.31h-18v48.62c0,6.1,1.08,11.29,3.23,15.59,2.15,4.29,5.15,7.56,8.97,9.79,3.83,2.24,8.24,3.36,13.25,3.36,5.73,0,10.56-1.36,14.49-4.08,3.93-2.72,6.75-6.21,8.48-10.49h.79v13.57h17.45V30.31h-18v44.25Z"/>
    <path class="cls-1" d="M949.13,4.85v38.08h-.75c-.93-1.86-2.24-3.84-3.93-5.94-1.69-2.1-3.98-3.91-6.86-5.42-2.88-1.51-6.56-2.26-11.04-2.26-5.87,0-11.19,1.5-15.96,4.5-4.77,3-8.56,7.42-11.36,13.27-2.8,5.85-4.2,13.02-4.2,21.5s1.38,15.51,4.13,21.38,6.5,10.34,11.24,13.42c4.74,3.08,10.11,4.62,16.11,4.62,4.38,0,8-.73,10.89-2.19,2.88-1.46,5.2-3.22,6.96-5.29,1.76-2.07,3.1-4.04,4.03-5.89h1.09v12.03h17.7V4.85h-18.05ZM947.39,81.46c-1.39,3.71-3.43,6.61-6.12,8.68-2.68,2.07-5.93,3.11-9.74,3.11s-7.27-1.07-9.97-3.21c-2.7-2.14-4.74-5.07-6.12-8.8-1.38-3.73-2.06-7.98-2.06-12.75s.68-8.95,2.04-12.63c1.36-3.68,3.38-6.56,6.06-8.65,2.69-2.09,6.03-3.13,10.04-3.13s7.15,1.01,9.82,3.03c2.67,2.02,4.69,4.86,6.07,8.5,1.37,3.65,2.06,7.94,2.06,12.88s-.7,9.26-2.09,12.98Z"/>
  </g>
</svg>